Coordinates
version=1
nRows=24
nColumns=24
inDegrees=yes

Units are S.I. units (second, meters, Newtons, ...)
Angles are in degrees.

endheader
time	pelvis_tilt	pelvis_list	pelvis_rotation	pelvis_tx	pelvis_ty	pelvis_tz	hip_flexion_r	hip_adduction_r	hip_rotation_r	knee_angle_r	ankle_angle_r	subtalar_angle_r	mtp_angle_r	hip_flexion_l	hip_adduction_l	hip_rotation_l	knee_angle_l	ankle_angle_l	subtalar_angle_l	mtp_angle_l	lumbar_extension	lumbar_bending	lumbar_rotation
      0.85883333	     -3.94071764	     -0.41495177	     -7.18903870	     -0.15280994	      0.88508615	      0.32926084	    -13.43527336	      3.69976194	      5.46502425	    -11.75321650	     17.21039960	      9.99719673	     10.06659557	     33.61849068	     -3.79839484	    -10.33559843	    -20.17679219	      3.54752745	     -2.68958216	     -2.34486912	     -4.05862950	      1.11810138	     13.78167160
      0.86300000	     -4.02251853	     -0.35190250	     -7.35778331	     -0.14673930	      0.88370323	      0.32926454	    -13.41589979	      3.54756634	      5.53606274	    -12.46809310	     17.35377220	     10.21359384	     10.27076520	     33.67109904	     -3.73104518	    -10.31057934	    -20.50540769	      3.61670459	     -2.66802377	     -2.31668172	     -3.92065290	      0.98948803	     13.86687795
      0.86716667	     -4.10901629	     -0.28136681	     -7.50916827	     -0.14064769	      0.88233676	      0.32922467	    -13.34519029	      3.38835040	      5.53219286	    -13.27491120	     17.45082964	     10.48023367	     10.51377733	     33.72363216	     -3.64428353	    -10.27933938	    -20.89062018	      3.66824523	     -2.67526875	     -2.27746402	     -3.76892565	      0.86920118	     13.95693254
      0.87133333	     -4.16246032	     -0.19902175	     -7.61024029	     -0.13450606	      0.88105660	      0.32907999	    -13.29055229	      3.21506217	      5.43017311	    -14.10645990	     17.39476056	     10.74187572	     14.29979612	     33.72467709	     -3.49887641	    -10.17488885	    -21.28866959	      3.64925168	     -2.82731304	     -1.59390256	     -3.65542578	      0.74433326	     14.01954493
      0.87550000	     -4.23971225	     -0.11832673	     -7.71752315	     -0.12836017	      0.87977242	      0.32897772	    -13.17659064	      3.05581735	      5.39008807	    -15.01869262	     17.39952283	     10.99535065	     14.38720719	     33.76409466	     -3.37860140	    -10.14647484	    -21.78133330	      3.66504460	     -2.86962991	     -1.55887691	     -3.50971337	      0.60341953	     14.06570167
      0.87966667	     -4.31848649	     -0.02709968	     -7.79604481	     -0.12219504	      0.87852113	      0.32882607	    -13.02729400	      2.89188582	      5.31960067	    -15.99742863	     17.38044631	     11.23731995	     14.53150614	     33.79955146	     -3.22229722	    -10.06386854	    -22.30035362	      3.65437677	     -3.02759944	     -1.51305103	     -3.35504774	      0.45248900	     14.06834572
      0.88383333	     -4.39533413	      0.07822770	     -7.85936184	     -0.11600719	      0.87732133	      0.32865123	    -12.84909259	      2.71882130	      5.25513111	    -17.03062554	     17.30596888	     11.44735086	     14.69776685	     33.82681226	     -3.03942001	     -9.96885652	    -22.84789813	      3.68771088	     -3.23390250	     -1.46299492	     -3.20116173	      0.26233490	     14.03804699
      0.88800000	     -4.44063813	      0.20193812	     -7.89359986	     -0.10979370	      0.87623543	      0.32837508	    -12.66301324	      2.51236263	      5.08369794	    -18.12420976	     17.08892649	     11.70511252	     17.71999473	     33.80223836	     -2.80157616	     -9.83046381	    -23.37092496	      3.58076776	     -3.63108956	     -0.60299285	     -3.07996771	      0.07457547	     14.00245454
      0.89216667	     -4.51432465	      0.29473711	     -7.88512510	     -0.10359853	      0.87511331	      0.32808449	    -12.41326079	      2.36362516	      4.91901957	    -19.30144174	     16.91572856	     11.94121491	     17.80992016	     33.85385744	     -2.60067732	     -9.71431633	    -24.02273098	      3.63928912	     -3.80913511	     -0.56676604	     -2.93567135	     -0.08530126	     13.91755426
      0.89633333	     -4.58382182	      0.41318932	     -7.86852858	     -0.09739760	      0.87406978	      0.32775249	    -12.11821479	      2.18243705	      4.72599647	    -20.55834526	     16.67807768	     12.19515016	     17.97743087	     33.88518987	     -2.35604805	     -9.56649318	    -24.65503690	      3.66009167	     -4.13773041	     -0.51698116	     -2.78714822	     -0.27877283	     13.80937831
      0.90050000	     -4.64845753	      0.53790850	     -7.82730865	     -0.09119119	      0.87309382	      0.32737046	    -11.78772079	      1.99368684	      4.50072533	    -21.88259468	     16.37307134	     12.45861993	     18.22744740	     33.91339403	     -2.09115509	     -9.40547611	    -25.30394374	      3.70238452	     -4.49791935	     -0.45188467	     -2.64670598	     -0.48205782	     13.67483641
      0.90466667	     -4.69070939	      0.68332895	     -7.76805396	     -0.08496052	      0.87224476	      0.32695359	    -11.45039696	      1.77694078	      4.25160627	    -23.23375788	     15.85857475	     12.65526533	     21.78319271	     33.90246236	     -1.78689476	     -9.22165506	    -25.92835866	      3.72850335	     -4.96311101	      0.39847315	     -2.52741994	     -0.72401722	     13.55707153
      0.90883333	     -4.75121725	      0.79564902	     -7.68053147	     -0.07877362	      0.87138142	      0.32654076	    -11.05036715	      1.61133153	      4.01229567	    -24.67800931	     15.41010836	     12.87317604	     21.84604341	     33.95585609	     -1.53271737	     -9.07385089	    -26.67098190	      3.95429118	     -5.18240558	      0.42587874	     -2.40070910	     -0.94236227	     13.36572292
      0.91300000	     -4.77666609	      0.95186691	     -7.58267899	     -0.07260038	      0.87065201	      0.32602376	    -10.61547398	      1.36704153	      3.66512801	    -26.23379190	     14.94151022	     13.21965187	     22.11798526	     33.94530442	     -1.20438798	     -8.89844691	    -27.34447923	      4.06556389	     -5.63733430	      0.48887751	     -2.31350138	     -1.17341360	     13.12939623
      0.91716667	     -4.84817999	      1.07336687	     -7.45980052	     -0.06646410	      0.86992000	      0.32551444	    -10.10040590	      1.18024979	      3.35951219	    -27.83306915	     14.33184208	     13.42650815	     22.31026837	     34.00590270	     -0.92433977	     -8.72374741	    -28.07612892	      4.28177469	     -5.87307807	      0.53245526	     -2.17459445	     -1.37084615	     12.92934507
      0.92133333	     -4.88744168	      1.22335458	     -7.32635148	     -0.06033691	      0.86930335	      0.32496414	     -9.56836399	      0.94264647	      3.00368710	    -29.50321762	     13.67416614	     13.70109792	     22.56797550	     34.01841530	     -0.60439123	     -8.55146316	    -28.78132641	      4.53232363	     -6.17542351	      0.58130239	     -2.07488259	     -1.61086242	     12.68938531
      0.92550000	     -4.86326793	      1.41581629	     -7.19493888	     -0.05421357	      0.86887339	      0.32435703	     -9.05546755	      0.62663487	      2.61400848	    -31.23189843	     12.96299803	     14.05191566	     23.38488742	     33.92296852	     -0.21255123	     -8.33642857	    -29.40201336	      4.80614223	     -6.64553640	      0.70464964	     -2.06916132	     -1.91046419	     12.39468434
      0.92966667	     -4.89212951	      1.57787785	     -7.04901806	     -0.04812636	      0.86842477	      0.32380548	     -8.45248778	      0.35818381	      2.24257787	    -32.98795645	     12.01988446	     14.19190346	     26.68571579	     33.91232691	      0.10091322	     -8.23067993	    -30.09045594	      5.06174609	     -6.83210298	      1.15786220	     -1.98130850	     -2.18499319	     12.16375114
      0.93383333	     -4.89824917	      1.71499939	     -6.86153572	     -0.04208286	      0.86803852	      0.32318436	     -7.84353423	      0.10877833	      1.83122576	    -34.79884946	     11.18386929	     14.42164313	     26.72897780	     33.88014838	      0.41292832	     -8.06883581	    -30.79433084	      5.52376699	     -6.89509278	      1.18113879	     -1.93950732	     -2.41070296	     11.94887501
      0.93800000	     -4.88643296	      1.89817707	     -6.69350332	     -0.03606971	      0.86776964	      0.32255581	     -7.19728156	     -0.21767476	      1.41261296	    -36.67205128	     10.28131191	     14.66713739	     26.78751223	     33.79081413	      0.76745414	     -7.93519617	    -31.41170112	      5.91706278	     -7.04148730	      1.20029375	     -1.91941535	     -2.69557732	     11.68055231
      0.94216667	     -4.85310905	      2.09232055	     -6.51954887	     -0.03009676	      0.86759532	      0.32191494	     -6.53883997	     -0.57253110	      0.98547514	    -38.57700001	      9.33839386	     14.91698876	     26.85479271	     33.65892755	      1.13603383	     -7.80552668	    -31.98718725	      6.33152128	     -7.18751264	      1.21832946	     -1.93449545	     -3.00401781	     11.39783383
      0.94633333	     -4.80133222	      2.29246372	     -6.34091924	     -0.02415356	      0.86752598	      0.32126658	     -5.86976164	     -0.95009239	      0.54812932	    -40.50183509	      8.34585026	     15.12621843	     26.89973269	     33.48029661	      1.50833845	     -7.69471284	    -32.50923255	      6.76267109	     -7.27106743	      1.23425531	     -1.97275313	     -3.31213819	     11.12755520
      0.95050000	     -4.73607350	      2.50514848	     -6.16173469	     -0.01825921	      0.86753842	      0.32061304	     -5.18437953	     -1.35716680	      0.11209415	    -42.44576015	      7.33677139	     15.32512021	     26.91401522	     33.26459125	      1.89071505	     -7.59714230	    -32.98155176	      7.20531104	     -7.32345956	      1.24856949	     -2.03229747	     -3.63660235	     10.84937761
      0.95466667	     -4.65812707	      2.72242064	     -5.98118767	     -0.01241443	      0.86763742	      0.31995670	     -4.48532214	     -1.78461759	     -0.32469684	    -44.39980979	      6.31627592	     15.50092269	     26.88641007	     33.00803202	      2.27428463	     -7.51681739	    -33.39590067	      7.65433424	     -7.34335362	      1.26131627	     -2.11458293	     -3.96970720	     10.56689897
